# This file uses centimeters as units for non-parametric coordinates.

mtllib Low Table.mtl
g default
v -2.968758 1.202005 1.531751
v 2.968758 1.202005 1.531751
v -2.968758 1.636857 1.531751
v 2.968758 1.636857 1.531751
v -2.968758 1.636857 -1.531751
v 2.968758 1.636857 -1.531751
v -2.968758 1.202005 -1.531751
v 2.968758 1.202005 -1.531751
v -3.226455 1.298551 -1.664711
v -3.226455 1.298551 1.664711
v 3.226455 1.298551 1.664711
v 3.226455 1.298551 -1.664711
vt 0.375000 0.000000
vt 0.625000 0.000000
vt 0.375000 0.250000
vt 0.625000 0.250000
vt 0.375000 0.500000
vt 0.625000 0.500000
vt 0.375000 0.750000
vt 0.625000 0.750000
vt 0.375000 1.000000
vt 0.625000 1.000000
vt 0.875000 0.000000
vt 0.875000 0.250000
vt 0.125000 0.000000
vt 0.125000 0.250000
vt 0.125000 0.105091
vt 0.375000 0.644909
vt 0.375000 0.105091
vt 0.625000 0.105091
vt 0.625000 0.644909
vt 0.875000 0.105091
vn 0.000000 0.134847 0.990866
vn 0.000000 0.134847 0.990866
vn 0.000000 0.365783 0.930700
vn 0.000000 0.365783 0.930700
vn 0.000000 1.000000 0.000000
vn 0.000000 1.000000 0.000000
vn 0.000000 1.000000 0.000000
vn 0.000000 1.000000 0.000000
vn 0.000000 0.365783 -0.930700
vn 0.000000 0.365783 -0.930700
vn 0.000000 0.134847 -0.990867
vn 0.000000 0.134847 -0.990867
vn 0.000000 -1.000000 0.000000
vn 0.000000 -1.000000 0.000000
vn 0.000000 -1.000000 0.000000
vn 0.000000 -1.000000 0.000000
vn 0.997520 0.070387 0.000000
vn 0.997520 0.070387 0.000000
vn 0.795499 0.605955 0.000000
vn 0.795499 0.605955 0.000000
vn -0.997520 0.070387 0.000000
vn -0.997520 0.070387 0.000000
vn -0.795499 0.605955 0.000000
vn -0.795499 0.605955 0.000000
vn -0.350836 -0.936437 0.000000
vn -0.350836 -0.936437 0.000000
vn 0.000000 -0.809177 0.587565
vn 0.000000 -0.809177 0.587565
vn 0.350836 -0.936437 0.000000
vn 0.350836 -0.936437 0.000000
vn 0.000000 -0.809177 -0.587565
vn 0.000000 -0.809177 -0.587565
s 1
g pCube1
usemtl initialShadingGroup
f 10/17/1 11/18/2 4/4/3 3/3/4
s off
f 3/3/5 4/4/6 6/6/7 5/5/8
s 2
f 5/5/9 6/6/10 12/19/11 9/16/12
s off
f 7/7/13 8/8/14 2/10/15 1/9/16
s 3
f 11/18/17 12/20/18 6/12/19 4/4/20
s 4
f 9/15/21 10/17/22 3/3/23 5/14/24
f 7/13/25 1/1/26 10/17/22 9/15/21
s 1
f 1/1/27 2/2/28 11/18/2 10/17/1
s 3
f 2/2/29 8/11/30 12/20/18 11/18/17
s 2
f 9/16/12 12/19/11 8/8/31 7/7/32
g default
v 2.506529 0.042165 1.403921
v 2.777056 0.042165 1.403921
v 2.506529 1.286142 1.403921
v 2.777056 1.286142 1.403921
v 2.506529 1.286142 1.115464
v 2.777056 1.286142 1.115464
v 2.506529 0.042165 1.115464
v 2.777056 0.042165 1.115464
vt 0.375000 0.000000
vt 0.625000 0.000000
vt 0.375000 0.250000
vt 0.625000 0.250000
vt 0.375000 0.500000
vt 0.625000 0.500000
vt 0.375000 0.750000
vt 0.625000 0.750000
vt 0.375000 1.000000
vt 0.625000 1.000000
vt 0.875000 0.000000
vt 0.875000 0.250000
vt 0.125000 0.000000
vt 0.125000 0.250000
vn 0.000000 0.000000 1.000000
vn 0.000000 0.000000 1.000000
vn 0.000000 0.000000 1.000000
vn 0.000000 0.000000 1.000000
vn 0.000000 1.000000 0.000000
vn 0.000000 1.000000 0.000000
vn 0.000000 1.000000 0.000000
vn 0.000000 1.000000 0.000000
vn 0.000000 0.000000 -1.000000
vn 0.000000 0.000000 -1.000000
vn 0.000000 0.000000 -1.000000
vn 0.000000 0.000000 -1.000000
vn 0.000000 -1.000000 0.000000
vn 0.000000 -1.000000 0.000000
vn 0.000000 -1.000000 0.000000
vn 0.000000 -1.000000 0.000000
vn 1.000000 0.000000 0.000000
vn 1.000000 0.000000 0.000000
vn 1.000000 0.000000 0.000000
vn 1.000000 0.000000 0.000000
vn -1.000000 0.000000 0.000000
vn -1.000000 0.000000 0.000000
vn -1.000000 0.000000 0.000000
vn -1.000000 0.000000 0.000000
s off
g pCube2
usemtl initialShadingGroup
f 13/21/33 14/22/34 16/24/35 15/23/36
f 15/23/37 16/24/38 18/26/39 17/25/40
f 17/25/41 18/26/42 20/28/43 19/27/44
f 19/27/45 20/28/46 14/30/47 13/29/48
f 14/22/49 20/31/50 18/32/51 16/24/52
f 19/33/53 13/21/54 15/23/55 17/34/56
g default
v -2.863989 0.042165 1.403921
v -2.593462 0.042165 1.403921
v -2.863989 1.286142 1.403921
v -2.593462 1.286142 1.403921
v -2.863989 1.286142 1.115464
v -2.593462 1.286142 1.115464
v -2.863989 0.042165 1.115464
v -2.593462 0.042165 1.115464
vt 0.375000 0.000000
vt 0.625000 0.000000
vt 0.375000 0.250000
vt 0.625000 0.250000
vt 0.375000 0.500000
vt 0.625000 0.500000
vt 0.375000 0.750000
vt 0.625000 0.750000
vt 0.375000 1.000000
vt 0.625000 1.000000
vt 0.875000 0.000000
vt 0.875000 0.250000
vt 0.125000 0.000000
vt 0.125000 0.250000
vn 0.000000 0.000000 1.000000
vn 0.000000 0.000000 1.000000
vn 0.000000 0.000000 1.000000
vn 0.000000 0.000000 1.000000
vn 0.000000 1.000000 0.000000
vn 0.000000 1.000000 0.000000
vn 0.000000 1.000000 0.000000
vn 0.000000 1.000000 0.000000
vn 0.000000 0.000000 -1.000000
vn 0.000000 0.000000 -1.000000
vn 0.000000 0.000000 -1.000000
vn 0.000000 0.000000 -1.000000
vn 0.000000 -1.000000 0.000000
vn 0.000000 -1.000000 0.000000
vn 0.000000 -1.000000 0.000000
vn 0.000000 -1.000000 0.000000
vn 1.000000 0.000000 0.000000
vn 1.000000 0.000000 0.000000
vn 1.000000 0.000000 0.000000
vn 1.000000 0.000000 0.000000
vn -1.000000 0.000000 0.000000
vn -1.000000 0.000000 0.000000
vn -1.000000 0.000000 0.000000
vn -1.000000 0.000000 0.000000
s off
g pCube3
usemtl initialShadingGroup
f 21/35/57 22/36/58 24/38/59 23/37/60
f 23/37/61 24/38/62 26/40/63 25/39/64
f 25/39/65 26/40/66 28/42/67 27/41/68
f 27/41/69 28/42/70 22/44/71 21/43/72
f 22/36/73 28/45/74 26/46/75 24/38/76
f 27/47/77 21/35/78 23/37/79 25/48/80
g default
v -2.863989 0.042165 -1.075584
v -2.593462 0.042165 -1.075584
v -2.863989 1.286142 -1.075584
v -2.593462 1.286142 -1.075584
v -2.863989 1.286142 -1.364040
v -2.593462 1.286142 -1.364040
v -2.863989 0.042165 -1.364040
v -2.593462 0.042165 -1.364040
vt 0.375000 0.000000
vt 0.625000 0.000000
vt 0.375000 0.250000
vt 0.625000 0.250000
vt 0.375000 0.500000
vt 0.625000 0.500000
vt 0.375000 0.750000
vt 0.625000 0.750000
vt 0.375000 1.000000
vt 0.625000 1.000000
vt 0.875000 0.000000
vt 0.875000 0.250000
vt 0.125000 0.000000
vt 0.125000 0.250000
vn 0.000000 0.000000 1.000000
vn 0.000000 0.000000 1.000000
vn 0.000000 0.000000 1.000000
vn 0.000000 0.000000 1.000000
vn 0.000000 1.000000 0.000000
vn 0.000000 1.000000 0.000000
vn 0.000000 1.000000 0.000000
vn 0.000000 1.000000 0.000000
vn 0.000000 0.000000 -1.000000
vn 0.000000 0.000000 -1.000000
vn 0.000000 0.000000 -1.000000
vn 0.000000 0.000000 -1.000000
vn 0.000000 -1.000000 0.000000
vn 0.000000 -1.000000 0.000000
vn 0.000000 -1.000000 0.000000
vn 0.000000 -1.000000 0.000000
vn 1.000000 0.000000 0.000000
vn 1.000000 0.000000 0.000000
vn 1.000000 0.000000 0.000000
vn 1.000000 0.000000 0.000000
vn -1.000000 0.000000 0.000000
vn -1.000000 0.000000 0.000000
vn -1.000000 0.000000 0.000000
vn -1.000000 0.000000 0.000000
s off
g pCube4
usemtl initialShadingGroup
f 29/49/81 30/50/82 32/52/83 31/51/84
f 31/51/85 32/52/86 34/54/87 33/53/88
f 33/53/89 34/54/90 36/56/91 35/55/92
f 35/55/93 36/56/94 30/58/95 29/57/96
f 30/50/97 36/59/98 34/60/99 32/52/100
f 35/61/101 29/49/102 31/51/103 33/62/104
g default
v 2.506529 0.042165 -1.075584
v 2.777056 0.042165 -1.075584
v 2.506529 1.286142 -1.075584
v 2.777056 1.286142 -1.075584
v 2.506529 1.286142 -1.364040
v 2.777056 1.286142 -1.364040
v 2.506529 0.042165 -1.364040
v 2.777056 0.042165 -1.364040
vt 0.375000 0.000000
vt 0.625000 0.000000
vt 0.375000 0.250000
vt 0.625000 0.250000
vt 0.375000 0.500000
vt 0.625000 0.500000
vt 0.375000 0.750000
vt 0.625000 0.750000
vt 0.375000 1.000000
vt 0.625000 1.000000
vt 0.875000 0.000000
vt 0.875000 0.250000
vt 0.125000 0.000000
vt 0.125000 0.250000
vn 0.000000 0.000000 1.000000
vn 0.000000 0.000000 1.000000
vn 0.000000 0.000000 1.000000
vn 0.000000 0.000000 1.000000
vn 0.000000 1.000000 0.000000
vn 0.000000 1.000000 0.000000
vn 0.000000 1.000000 0.000000
vn 0.000000 1.000000 0.000000
vn 0.000000 0.000000 -1.000000
vn 0.000000 0.000000 -1.000000
vn 0.000000 0.000000 -1.000000
vn 0.000000 0.000000 -1.000000
vn 0.000000 -1.000000 0.000000
vn 0.000000 -1.000000 0.000000
vn 0.000000 -1.000000 0.000000
vn 0.000000 -1.000000 0.000000
vn 1.000000 0.000000 0.000000
vn 1.000000 0.000000 0.000000
vn 1.000000 0.000000 0.000000
vn 1.000000 0.000000 0.000000
vn -1.000000 0.000000 0.000000
vn -1.000000 0.000000 0.000000
vn -1.000000 0.000000 0.000000
vn -1.000000 0.000000 0.000000
s off
g pCube5
usemtl initialShadingGroup
f 37/63/105 38/64/106 40/66/107 39/65/108
f 39/65/109 40/66/110 42/68/111 41/67/112
f 41/67/113 42/68/114 44/70/115 43/69/116
f 43/69/117 44/70/118 38/72/119 37/71/120
f 38/64/121 44/73/122 42/74/123 40/66/124
f 43/75/125 37/63/126 39/65/127 41/76/128
